<?xml version="1.0" encoding="utf-8"?>
<!-- Generator: Adobe Illustrator 14.0.0, SVG Export Plug-In . SVG Version: 6.00 Build 43363)  -->
<!DOCTYPE svg PUBLIC "-//W3C//DTD SVG 1.1//EN" "http://www.w3.org/Graphics/SVG/1.1/DTD/svg11.dtd">
<svg version="1.1" id="Layer_1" xmlns="http://www.w3.org/2000/svg" xmlns:xlink="http://www.w3.org/1999/xlink" x="0px" y="0px"
	 width="1200px" height="186px" viewBox="0 0 1200 186" enable-background="new 0 0 1200 186" xml:space="preserve">
<g>
	<g>
		<path fill-rule="evenodd" clip-rule="evenodd" fill="#D1D5D9" d="M290.004,17.243c1.655,1.078,1.655,8.922,0,10
			C290.004,23.909,290.004,20.576,290.004,17.243z"/>
		<path fill-rule="evenodd" clip-rule="evenodd" fill="#9DA5AE" d="M1167.004,59.243c1.655,1.078,1.655,8.922,0,10
			C1167.004,65.909,1167.004,62.576,1167.004,59.243z"/>
		<path fill-rule="evenodd" clip-rule="evenodd" fill="#D1D5D9" d="M1019.004,91.243c1.655,1.078,1.655,8.922,0,10
			C1019.004,97.909,1019.004,94.576,1019.004,91.243z"/>
		<path fill-rule="evenodd" clip-rule="evenodd" fill="#9DA5AE" d="M447.004,97.243c10.005-2.329,24.33-0.337,36-1
			C472.999,98.571,458.674,96.58,447.004,97.243z"/>
		<path fill-rule="evenodd" clip-rule="evenodd" fill="#9DA5AE" d="M818.004,97.243c10.005-2.329,24.33-0.337,36-1
			C843.999,98.571,829.674,96.58,818.004,97.243z"/>
		<path fill-rule="evenodd" clip-rule="evenodd" fill="#D1D5D9" d="M97.004,114.243c0,8.333,0,16.667,0,25
			C95.339,133.227,95.339,120.258,97.004,114.243z"/>
		<path fill-rule="evenodd" clip-rule="evenodd" fill="#D1D5D9" d="M144.004,134.243c2.308,3.025,0.353,10.314,1,15
			C142.696,146.217,144.651,138.928,144.004,134.243z"/>
		<path fill-rule="evenodd" clip-rule="evenodd" fill="#6C7985" d="M267.004,106.243c2.915-3.752,6.248-7.085,10-10
			C274.089,99.995,270.756,103.329,267.004,106.243z"/>
		<path fill-rule="evenodd" clip-rule="evenodd" fill="#2C3E50" d="M279.004,2.243c7.373,1.293,10.595,6.738,11,15
			c0,3.333,0,6.667,0,10c-6.056,38.277-23.458,65.208-38,95c7.263-3.07,9.458-11.209,15-16c3.752-2.914,7.085-6.248,10-10
			c6.933-5.067,10.798-13.202,24-12c16.422,26.6-21.205,43.543-10,74c13.279-1.054,19.023-9.644,26-17
			c4.847-19.323,21.501-49.388,43-53c8.877-1.492,12.338,1.615,17,6c1.386,2.28,6.96,0.373,10,1c1.615-0.282,1.722,0.945,3,1
			c5.739,22.664-10.885,41.448-4,62c15.979-2.354,23.126-13.541,29-26c0-9,0-18,0-27c0.325-3.675-0.853-8.853,1-11
			c-6.709-3.958-19.492-1.841-25-7c0-2.333,0-4.667,0-7c2.826,0.826,2.591-1.409,5-1c7.342-0.658,17.322,1.322,23-1
			c5.209-20.927,14.123-66.533,38-65c10.811,0.694,13.693,10.801,16,22c0,3.333,0,6.667,0,10c-2.067,15.266-9.372,25.295-16,36
			c9.728,0.605,21.917-1.25,30,1c2.038,4.417,1.915,14.305-4,14c-11.67,0.663-25.995-1.329-36,1c-4.336,6.331-12.049,9.285-11,21
			c-1.665,7.013-1.665,20.987,0,28c-0.598,6.931,3.766,8.9,7,12c13.994,1.016,28.331-7.516,40-18c10.453-9.392,23.19-16.649,32-25
			c9.594-9.095,13.01-25.992,26-28c7.547-1.167,13.986,2.329,15,6c2.712,9.817-10.615,14.581-12,22c-2.596,13.907,9.9,24.267,4,40
			c12.458-0.229,26.774-20.94,41-13c3.19,6.03-2.423,13.238-8,18c-13.872,11.844-45.594,23.876-71,20
			c-9.357-1.428-17.101-6.916-18-17c-22.425-2.926-38.215,25.437-60,14c-6.21-3.26-9.548-11.065-12-20
			c-9.115,13.261-42.401,37.874-51,8c-9.254,13.398-44.599,22.17-51,0c-11.146,5.764-22.759,17.511-38,14
			c-23.53-5.421-14.528-46.232-4-60c-7.71,3.189-16.164,14.337-25,28c-5.937,9.18-12.158,34.151-23,32
			c-6.368-1.264-6.759-8.797-7-17c-14.089,8.545-42.833,6.79-41-15c-9.103,11.23-11.782,28.885-29,32c-6.943-5.057-5.45-18.55-6-30
			c-0.647-4.686,1.308-11.975-1-15c-11.432,15.901-10.856,43.811-37,45c-9.809-6.858-8.944-24.39-10-40c0-8.333,0-16.667,0-25
			c0-2.667,0-5.333,0-8c-0.101-3.101,1.223-4.777,2-7c1.816-5.184,5.08-8.92,9-12c5.806,0.194,12.944-0.944,16,2
			c2.282,19.321-5.344,37.293-6,57c14.155-16.359,13.122-70.55,48-56c-1.801,19.532-6.332,36.335-8,56
			c4.339-6.383,8.18-17.848,13-29c7.271-16.819,11.217-38.272,35-27c2.41,17.87-9.972,29.268-15,43c1.916,14.487,20.429,15.436,30,7
			c0-2.667,0-5.333,0-8c2.28-1.387,0.373-6.961,1-10c5.903-49.43,5.201-105.465,46-120C271.67,2.243,275.337,2.243,279.004,2.243z
			 M272.004,20.243c-1.278-0.055-1.385-1.282-3-1c-17.263,20.738-25.344,55.988-26,90C253.123,80.028,270.99,58.562,272.004,20.243z
			 M451.004,62.243c4.778-9.706,14.411-25.955,2-28c-9.821,10.512-13.477,27.19-16,45C444.208,80.521,446.99,70.397,451.004,62.243z
			 M340.004,142.243c-2.108,15.903,5.532,25.752,15,14c8.947-11.105,9.747-35.459,14-51
			C354.428,108.577,342.163,125.963,340.004,142.243z M501.004,157.243c5.653,4.907,10.938,10.284,19,8
			c10.971-3.107,7.707-25.136,5-35C517.534,139.773,507.953,147.192,501.004,157.243z"/>
		<path fill-rule="evenodd" clip-rule="evenodd" fill="#2C3E50" d="M919.004,134.243c5.776-25.558,13.48-49.187,48-46
			c32.042,16.682,3.842,60.323-24,62c12.942,19.158,40.511-1.674,51-10c0.251-20.416,6.496-34.837,11-51
			c3.254-1.16,10.883-1.877,14,0c0,0.667,0,1.333,0,2c0,3.333,0,6.667,0,10c0,1.333,0,2.667,0,4c-2.295,2.038-0.361,8.305-1,12
			c1.163,0.163,1.779-0.221,2-1c5.62-13.004,12.978-33.958,33-26c7.644,12.061-11.628,37.413,4,42c9.067,2.661,18.942-7.252,25-12
			c3.958,0.375,7.262,1.404,10,3c6.694,14.628-34.103,39.701-51,25c-7.473-6.501-6.123-14.068-9-28
			c-10.646,17.354-12.777,43.223-25,59c-11.335,1.668-14.399-4.934-15-14c-14.594,14.308-59.481,22.699-68-3
			c-16.855,13.166-58.688,29.568-64-5c-15.436,13.061-61.959,39.245-69,2c-16.366,18.941-71.728,32.815-80-3
			c-14.336,10.331-35.761,13.573-51,23c-6,0-12,0-18,0c-9.896-1.77-16.966-6.368-24-11c6.304-63.029,4.98-133.686,42-166
			c0.667,0,1.333,0,2,0c3.333,0,6.667,0,10,0c13.643,1.112,17.757,19.536,16,35c-2.975,26.184-25.859,51.06-36,66
			c5.813-1.884,8.89-11.852,17-13c27.649-3.914,30.78,42.774,17,61c9.37-2.963,15.413-9.254,23-14c3.214-18.712,10.929-42.411,28-48
			c10.487-3.434,22.911-2.089,30,5c20.928,20.928-12.118,53.875-33,56c12.762,20.822,42.997-3.86,52-12
			c-2.314-14.187-0.188-30.234,1-44c-7.926-2.169-37.889-6.014-20-15c7.01-0.657,16.654,1.321,22-1c4.056-13.228,6.598-26.364,13-40
			c4.625-9.85,12.855-26.751,27-25c26.912,3.333,11.73,57.513-1,68c4.589,0.923,4.831-2.502,9-2c7.333,0,14.667,0,22,0
			c0.529-0.804,1.043-1.624,1-3c2.09-14.042,5.938-25.188,12-38c5.252-11.099,19.388-35.277,35-21c16.021,14.651,1.543,51.193-9,64
			c9.728,0.605,21.917-1.25,30,1c1.751,4.725,1.624,13.6-4,14c-12.004,0.663-26.662-1.329-37,1c-13.221,7.24-17.234,51.004-3,61
			c16.736,0.736,24.625-7.375,34-14c0.333,0,0.667,0,1,0C919.004,140.91,919.004,137.576,919.004,134.243z M642.004,94.243
			c4.878-10.269,13.141-22.21,19-35c4.861-10.611,14.683-29.121,4-40C649.643,35.882,646.584,70.155,642.004,94.243z
			 M822.004,62.243c4.834-9.717,14.449-25.833,2-28c-11.144,9.523-12.131,29.203-17,45C815.071,81.11,817.863,70.565,822.004,62.243
			z M877.004,79.243c6.943,1.794,10.728-7.749,14-14c4.962-9.479,11.107-20.857,6-31C881.752,40.658,881.955,62.527,877.004,79.243z
			 M806.004,127.243c-9.354,49.581,37.572,25.955,50,11c-3.414-11.875,1.757-33.203-2-42c-11.67,0.663-25.995-1.329-36,1
			c-4.184,5.816-11.264,8.736-11,19C804.716,117.955,806.637,123.875,806.004,127.243z M749.004,105.243
			c-12.362-1.594-17.071,19.117-18,30C746.238,138.45,766.357,107.48,749.004,105.243z M959.004,105.243
			c-12.259-2.395-17.839,17.01-18,30C956.414,138.371,974.724,108.313,959.004,105.243z M659.004,161.243
			c11.625-4.953,20.782-42.535,9-49c-22.046-12.097-32.073,27.724-30,48C645.209,162.9,652.838,163.871,659.004,161.243z"/>
		<path fill-rule="evenodd" clip-rule="evenodd" fill="#6C7985" d="M837.004,79.243c5.314-3.353,19.238,1.905,23-3
			c0.043,1.376-0.471,2.196-1,3C851.671,79.243,844.337,79.243,837.004,79.243z"/>
		<path fill-rule="evenodd" clip-rule="evenodd" fill="#6C7985" d="M1082.004,120.243c2.522-2.131,9.196,0.094,10,3
			C1089.266,121.647,1085.962,120.618,1082.004,120.243z"/>
		<path fill-rule="evenodd" clip-rule="evenodd" fill="#2C3E50" d="M1167.004,69.243c0.808,27.506-26.336,35.653-38,51
			c-5.544,7.295-6.881,20.187-20,14c-8.182-40.909,40.808-39.865,36-72c-1.271-8.493-8.144-12.16-15-12
			c-13.154,0.306-13.184,15.158-23,15c-10.957-0.176-10.257-13.77-4-21c16.936-19.571,61.03-14.857,64,15
			C1167.004,62.576,1167.004,65.909,1167.004,69.243z"/>
		<path fill-rule="evenodd" clip-rule="evenodd" fill="#6C7985" d="M268.004,2.243c1.4-1.657,9.6-1.657,11,0
			C275.337,2.243,271.67,2.243,268.004,2.243z"/>
		<path fill-rule="evenodd" clip-rule="evenodd" fill="#6C7985" d="M662.004,2.243c1.078-1.655,8.922-1.655,10,0
			C668.671,2.243,665.337,2.243,662.004,2.243z"/>
		<path fill-rule="evenodd" clip-rule="evenodd" fill="#9DA5AE" d="M473.004,35.243c1.655,1.078,1.655,8.922,0,10
			C473.004,41.909,473.004,38.576,473.004,35.243z"/>
		<path fill-rule="evenodd" clip-rule="evenodd" fill="#6C7985" d="M396.004,79.243c5.678-2.322,15.658-0.342,23-1
			C413.326,80.564,403.346,78.584,396.004,79.243z"/>
		<path fill-rule="evenodd" clip-rule="evenodd" fill="#9DA5AE" d="M377.004,94.243c3.04,0.627,8.614-1.28,10,1
			C383.964,94.616,378.39,96.523,377.004,94.243z"/>
		<path fill-rule="evenodd" clip-rule="evenodd" fill="#D1D5D9" d="M99.004,99.243c-0.777,2.223-2.101,3.899-2,7
			c-2.871-1.978,0.347-6.241,0-9C98.09,97.49,97.682,99.231,99.004,99.243z"/>
		<path fill-rule="evenodd" clip-rule="evenodd" fill="#6C7985" d="M1019.004,105.243c0.633,3.367-1.288,9.288,1,11
			c-0.221,0.779-0.837,1.163-2,1C1018.643,113.547,1016.709,107.281,1019.004,105.243z"/>
		<path fill-rule="evenodd" clip-rule="evenodd" fill="#9DA5AE" d="M807.004,116.243c-0.633,3.367,1.288,9.288-1,11
			C806.637,123.875,804.716,117.955,807.004,116.243z"/>
		<path fill-rule="evenodd" clip-rule="evenodd" fill="#6C7985" d="M222.004,122.243c-0.627,3.039,1.28,8.613-1,10
			C221.631,129.204,219.724,123.629,222.004,122.243z"/>
		<path fill-rule="evenodd" clip-rule="evenodd" fill="#6C7985" d="M919.004,134.243c0,3.333,0,6.667,0,10c-0.333,0-0.667,0-1,0
			C918.631,141.204,916.724,135.629,919.004,134.243z"/>
		<path fill-rule="evenodd" clip-rule="evenodd" fill="#2C3E50" d="M1119.004,150.243c21.844,5.084,4.573,38.367-17,28
			C1088.485,171.747,1096.677,145.046,1119.004,150.243z"/>
		<path fill-rule="evenodd" clip-rule="evenodd" fill="#D1D5D9" d="M642.004,179.243c6,0,12,0,18,0
			C656.309,180.905,645.699,180.905,642.004,179.243z"/>
		<path fill-rule="evenodd" clip-rule="evenodd" fill="#D1D5D9" d="M436.004,118.243c0,9.333,0,18.667,0,28
			C434.339,139.23,434.339,125.255,436.004,118.243z"/>
		<path fill-rule="evenodd" clip-rule="evenodd" fill="#6C7985" d="M767.004,79.243c5.346-2.321,14.99-0.343,22-1
			C783.658,80.563,774.014,78.585,767.004,79.243z"/>
		<path fill-rule="evenodd" clip-rule="evenodd" fill="#9DA5AE" d="M887.004,97.243c10.338-2.329,24.996-0.337,37-1
			C913.666,98.571,899.008,96.58,887.004,97.243z"/>
		<path fill-rule="evenodd" clip-rule="evenodd" fill="#6C7985" d="M415.004,105.243c0,9,0,18,0,27
			C413.339,125.562,413.339,111.923,415.004,105.243z"/>
		<path fill-rule="evenodd" clip-rule="evenodd" fill="#2C3E50" d="M531.004,11.243c4.402,9.935-2.33,23.647-6,35
			c-3.212,9.934-6.021,27.814-21,22C501.312,47.349,498.987-8.522,531.004,11.243z"/>
	</g>
</g>
</svg>
